<?xml version="1.0" encoding="UTF-8"?>
<!DOCTYPE svg PUBLIC "-//W3C//DTD SVG 1.1//EN" "http://www.w3.org/Graphics/SVG/1.1/DTD/svg11.dtd">
<svg xmlns="http://www.w3.org/2000/svg" version="1.1" width="386px" height="386px" style="shape-rendering:geometricPrecision; text-rendering:geometricPrecision; image-rendering:optimizeQuality; fill-rule:evenodd; clip-rule:evenodd" xmlns:xlink="http://www.w3.org/1999/xlink">
<g><path style="opacity:0.98" fill="#fefffe" d="M 146.5,2.5 C 172.878,2.17579 199.211,2.50912 225.5,3.5C 227.146,5.39197 227.48,7.39197 226.5,9.5C 219.522,10.3994 214.688,14.0661 212,20.5C 208.402,28.494 206.069,36.8274 205,45.5C 202.03,47.4013 198.864,48.9013 195.5,50C 193.664,51.8507 192.83,54.0173 193,56.5C 214.107,57.4679 235.273,58.4679 256.5,59.5C 252.639,66.8605 246.973,72.3605 239.5,76C 226.244,77.8765 212.91,79.2098 199.5,80C 197.333,80.8333 195.833,82.3333 195,84.5C 194.333,87.5 194.333,90.5 195,93.5C 198.827,97.9961 201.827,102.996 204,108.5C 209.944,112.111 215.611,116.111 221,120.5C 229.326,132.097 228.159,142.597 217.5,152C 212.627,154.936 207.627,157.603 202.5,160C 206.894,160.303 211.227,160.97 215.5,162C 220.077,167.104 219.077,170.77 212.5,173C 208.848,173.499 205.182,173.665 201.5,173.5C 200.503,192.669 207.503,208.169 222.5,220C 239.491,229.326 253.658,241.826 265,257.5C 273.934,272.743 273.6,287.743 264,302.5C 256.889,310.946 250.555,319.946 245,329.5C 243.087,336.375 241.92,343.375 241.5,350.5C 203.833,350.5 166.167,350.5 128.5,350.5C 128.715,343.366 127.882,336.366 126,329.5C 120.109,319.61 113.443,310.277 106,301.5C 97.0568,285.976 97.3901,270.643 107,255.5C 112.46,247.706 118.96,240.873 126.5,235C 139.031,227.973 150.197,219.14 160,208.5C 166.434,197.768 169.601,186.101 169.5,173.5C 164.134,173.958 158.967,173.291 154,171.5C 151.87,168.335 152.037,165.335 154.5,162.5C 159.066,161.179 163.733,160.345 168.5,160C 160.406,156.876 153.24,152.376 147,146.5C 141.091,134.301 143.591,124.134 154.5,116C 158.007,113.746 161.673,111.746 165.5,110C 167.195,104.774 170.029,100.274 174,96.5C 176.706,92.3202 177.039,87.9868 175,83.5C 173.764,81.4616 171.931,80.2949 169.5,80C 156.433,79.2038 143.433,77.8705 130.5,76C 123.689,71.689 118.022,66.189 113.5,59.5C 132.821,58.4197 152.155,57.5864 171.5,57C 177.56,56.3517 178.56,54.0184 174.5,50C 171.246,48.9731 168.246,47.4731 165.5,45.5C 164.091,34.7728 160.591,24.7728 155,15.5C 151.484,13.0736 148.151,10.407 145,7.5C 144.387,5.5048 144.887,3.83814 146.5,2.5 Z"/></g>
<g><path style="opacity:0.902" fill="#fefffe" d="M 227.5,115.5 C 232.701,117.098 237.701,119.265 242.5,122C 252.458,123.165 262.458,123.832 272.5,124C 307.049,131.226 325.049,152.559 326.5,188C 323.88,219.611 307.88,241.278 278.5,253C 272.877,253.754 268.877,251.42 266.5,246C 294.944,238.059 311.61,219.559 316.5,190.5C 313.013,149.523 290.679,130.69 249.5,134C 243.814,136.513 239.147,140.346 235.5,145.5C 235.49,140.289 235.323,134.956 235,129.5C 233.268,124.365 230.768,119.699 227.5,115.5 Z"/></g>
<g><path style="opacity:0.906" fill="#fefffe" d="M 123.5,385.5 C 121.833,385.5 120.167,385.5 118.5,385.5C 110.256,382.052 101.923,378.552 93.5,375C 87.0765,374.771 80.7432,373.937 74.5,372.5C 74.0688,371.707 73.7355,370.873 73.5,370C 74.589,367.084 75.4223,364.251 76,361.5C 56.607,338.647 53.2736,313.647 66,286.5C 73.1485,274.342 82.9818,265.008 95.5,258.5C 96.2485,262.071 95.4151,265.405 93,268.5C 88.4266,275.744 83.0933,282.41 77,288.5C 63.7903,311.937 66.1237,333.604 84,353.5C 85.5,352 87,350.5 88.5,349C 90.6354,348.365 92.6354,348.699 94.5,350C 96.1242,355.114 97.6242,360.281 99,365.5C 105.749,372.238 113.582,377.405 122.5,381C 124.548,382.226 124.881,383.726 123.5,385.5 Z"/></g>
</svg>
