<svg xmlns="http://www.w3.org/2000/svg" version="1.0" width="161.000000pt" height="161.000000pt" viewBox="0 0 161.000000 161.000000" preserveAspectRatio="xMidYMid meet">

<g transform="translate(0.000000,161.000000) scale(0.100000,-0.100000)" fill="#154397" stroke="none">
<path d="M692 1600 c-81 -11 -184 -44 -247 -78 -43 -23 -52 -34 -67 -77 -9 -27 -22 -52 -30 -56 -67 -30 -71 -34 -90 -99 -11 -36 -32 -78 -46 -93 -26 -27 -27 -33 -25 -122 2 -91 2 -93 -22 -99 -18 -5 -25 -13 -25 -31 0 -14 -9 -42 -20 -62 -33 -63 -23 -85 53 -116 36 -16 51 -47 27 -62 -16 -10 -11 -61 7 -77 10 -9 29 -21 42 -28 21 -11 26 -9 45 14 19 24 23 26 41 13 18 -14 20 -12 37 24 9 21 22 39 28 39 5 0 10 22 10 51 0 28 4 58 10 68 7 13 3 38 -12 86 l-22 68 28 24 c54 46 89 7 39 -43 -15 -15 -21 -23 -13 -17 8 6 24 13 35 15 11 2 23 14 26 28 6 22 7 20 8 -10 0 -19 -5 -55 -12 -80 -17 -57 -12 -79 19 -91 36 -13 42 -12 46 14 3 21 4 21 22 -6 25 -37 10 -76 -31 -78 -17 -1 -9 -4 21 -10 64 -10 126 -67 126 -114 0 -41 -10 -51 -24 -22 -8 14 -25 25 -51 30 -22 5 -55 15 -73 23 -42 18 -93 18 -118 -1 -18 -14 -17 -14 12 -15 17 0 37 -7 44 -15 15 -18 15 -17 -24 -37 l-30 -16 45 5 c70 6 74 5 126 -15 58 -24 117 -36 108 -22 -12 19 101 146 158 178 53 30 67 50 81 115 5 19 2 29 -8 33 -12 5 -11 12 6 46 20 37 21 47 10 107 -9 55 -17 71 -45 97 -39 36 -147 67 -235 67 -51 0 -57 -3 -93 -42 -51 -55 -65 -52 -31 7 20 33 38 50 63 59 47 16 154 16 220 -1 31 -8 61 -16 69 -18 7 -2 17 11 23 27 5 17 11 31 12 32 3 5 140 -44 173 -61 18 -9 32 -14 32 -11 0 11 -103 53 -195 81 -76 23 -110 27 -215 28 -115 1 -130 -1 -180 -25 -30 -14 -70 -38 -87 -53 -34 -29 -43 -56 -19 -56 7 0 19 -7 26 -15 11 -13 8 -15 -18 -15 -20 0 -32 -6 -36 -17 -2 -10 -2 9 0 42 9 96 33 202 54 237 14 23 18 43 14 68 -9 66 28 81 40 15 6 -32 9 -34 39 -29 42 8 85 59 89 104 2 27 7 35 23 35 15 0 21 -9 25 -35 4 -19 11 -45 18 -56 30 -55 131 -21 154 51 10 29 18 40 33 40 17 0 20 -8 23 -55 3 -63 18 -101 38 -93 8 3 21 0 30 -7 12 -11 20 -10 42 7 15 11 28 30 30 42 5 31 36 45 57 25 12 -12 14 -27 10 -58 -6 -43 8 -68 52 -93 26 -15 33 -8 33 34 0 27 4 33 21 33 19 0 21 -5 19 -87 -1 -49 1 -114 5 -145 8 -65 2 -99 -21 -123 -15 -14 -15 -29 -4 -143 12 -124 13 -127 37 -128 13 -1 34 -10 45 -20 l21 -19 -6 55 c-7 61 7 128 28 136 8 3 17 18 20 34 8 37 27 53 107 90 l67 31 -25 57 c-103 234 -305 407 -545 466 -82 20 -224 28 -307 16z m618 -362 c0 -24 -4 -50 -10 -58 -13 -21 -33 35 -25 72 10 45 35 35 35 -14z m-893 -220 c-3 -7 -5 -2 -5 12 0 14 2 19 5 13 2 -7 2 -19 0 -25z m267 18 c27 -8 66 -27 87 -42 42 -29 47 -45 7 -22 -15 8 -57 13 -118 13 -93 0 -95 1 -98 24 -6 42 38 52 122 27z m136 -92 c35 -10 49 -19 40 -24 -9 -6 -7 -10 9 -15 11 -3 21 -10 21 -15 0 -5 3 -16 6 -25 6 -14 1 -14 -36 5 -32 16 -53 20 -81 16 -22 -3 -56 -9 -78 -12 -23 -4 -41 -2 -45 5 -5 7 6 11 33 11 40 0 91 17 91 30 0 17 -14 17 -43 0 -39 -22 -112 -17 -103 7 3 8 6 18 6 23 0 23 92 20 180 -6z m-159 -205 c16 -8 18 -14 9 -22 -15 -16 -60 35 -60 66 1 20 2 20 16 -5 8 -15 24 -33 35 -39z m-35 -160 c3 -5 -13 -9 -34 -9 -35 0 -39 3 -35 19 4 17 9 18 34 9 16 -5 32 -14 35 -19z" fill="#154397"/>
<path d="M664 1386 c-8 -21 3 -36 27 -36 15 0 20 6 17 22 -4 27 -35 37 -44 14z" fill="#154397"/>
<path d="M870 1385 c-16 -19 2 -45 32 -45 15 0 19 6 16 27 -3 32 -29 41 -48 18z" fill="#154397"/>
<path d="M510 1335 c0 -14 5 -25 10 -25 6 0 10 11 10 25 0 14 -4 25 -10 25 -5 0 -10 -11 -10 -25z" fill="#154397"/>
<path d="M1070 1317 c0 -27 19 -40 39 -27 20 12 8 45 -17 48 -18 3 -22 -1 -22 -21z" fill="#154397"/>
<path d="M760 1300 c58 -4 134 -15 170 -24 75 -20 205 -83 258 -124 44 -34 62 -45 62 -38 0 3 -29 26 -64 51 -131 93 -295 146 -446 143 l-85 -1 105 -7z" fill="#154397"/>
<path d="M1212 1219 c1 -13 8 -23 13 -21 15 3 12 35 -3 40 -9 3 -13 -3 -10 -19z" fill="#154397"/>
<path d="M1190 1105 c19 -19 36 -35 39 -35 3 0 -10 16 -29 35 -19 19 -36 35 -39 35 -3 0 10 -16 29 -35z" fill="#154397"/>
<path d="M1140 893 c-19 -9 -41 -17 -49 -19 -33 -7 -49 -39 -54 -112 l-4 -73 28 28 c16 16 29 39 29 53 0 33 32 84 66 106 26 18 27 17 45 -5 25 -31 24 -49 -7 -107 -35 -67 -44 -74 -100 -82 -44 -6 -49 -10 -52 -35 -3 -23 0 -27 21 -27 27 0 120 67 137 99 20 38 31 116 21 144 -15 39 -40 48 -81 30z" fill="#154397"/>
<path d="M1560 898 c-70 -19 -130 -89 -130 -153 0 -14 -9 -34 -20 -45 -11 -11 -20 -32 -20 -46 l0 -26 -32 27 c-63 54 -129 1 -98 -79 9 -25 8 -26 -24 -26 -56 0 -101 -65 -88 -127 l8 -38 24 33 c13 17 27 32 30 32 9 0 56 -106 69 -156 6 -23 21 -53 32 -68 l22 -27 39 38 c92 88 178 240 212 373 20 77 33 260 20 282 -7 12 -16 13 -44 6z" fill="#154397"/>
<path d="M430 849 c0 -5 5 -7 10 -4 6 3 10 8 10 11 0 2 -4 4 -10 4 -5 0 -10 -5 -10 -11z" fill="#154397"/>
<path d="M1106 804 c-3 -9 -6 -25 -6 -37 0 -11 -7 -28 -15 -37 -14 -16 -13 -18 17 -24 27 -5 36 -2 51 15 19 24 22 51 7 80 -13 23 -46 25 -54 3z" fill="#154397"/>
<path d="M486 761 c-3 -5 6 -12 20 -15 29 -8 39 -3 29 13 -8 13 -42 14 -49 2z" fill="#154397"/>
<path d="M437 724 c3 -7 9 -14 14 -14 14 0 10 17 -5 23 -10 4 -13 1 -9 -9z" fill="#154397"/>
<path d="M1148 601 c-4 -28 -3 -28 26 -18 39 13 38 11 31 28 -3 8 -16 16 -29 17 -19 1 -25 -4 -28 -27z" fill="#154397"/>
<path d="M1028 550 c5 -70 4 -72 -29 -106 l-33 -34 -12 22 c-12 22 -13 21 -20 -20 -10 -61 -46 -100 -130 -138 -40 -18 -75 -37 -79 -43 -10 -16 -23 -13 -28 7 -3 9 -5 1 -6 -19 0 -20 -10 -47 -20 -60 l-20 -24 -7 42 -6 42 -24 -35 c-13 -19 -24 -41 -24 -49 0 -8 -7 -15 -15 -15 -17 0 -36 18 -77 70 l-28 35 0 -32 c0 -18 -4 -33 -8 -33 -21 0 -45 30 -52 66 l-7 39 -10 -35 -10 -35 -13 30 c-8 21 -10 60 -6 127 4 72 3 97 -7 101 -8 3 -3 14 16 34 34 37 34 43 -4 43 -37 0 -64 -13 -106 -53 -17 -16 -42 -30 -55 -31 -18 -1 -24 -8 -26 -30 -3 -26 -6 -28 -38 -23 l-34 6 32 -47 c74 -109 191 -210 310 -268 l57 -28 44 22 c24 12 59 25 76 28 19 4 36 15 40 27 7 19 8 18 36 -5 l28 -25 66 40 c36 22 84 56 106 76 22 20 74 56 116 79 42 23 81 48 87 55 12 14 21 247 10 247 -4 0 -10 -4 -13 -10 -11 -17 -53 -11 -68 10 -13 19 -14 13 -9 -50z" fill="#154397"/>
<path d="M1160 273 c-14 -9 -55 -45 -92 -79 -46 -43 -84 -69 -125 -84 -98 -36 -123 -51 -139 -83 l-16 -30 73 7 c41 3 103 14 139 22 65 16 208 78 244 106 19 15 19 16 -2 46 -12 16 -30 49 -40 71 -17 41 -17 41 -42 24z" fill="#154397"/>
</g>
</svg>